<!-- <?xml version="1.0" encoding="UTF-8"?> -->
<svg width="21.9994986px" height="23.9882501px" viewBox="0 0 21.9994986 23.9882501" version="1.1" xmlns="http://www.w3.org/2000/svg" xmlns:xlink="http://www.w3.org/1999/xlink">
    <!-- <title>mastodon</title> -->
    <!-- <g id="Page-1" stroke="none" stroke-width="1" fill="none" fill-rule="evenodd"> -->
        <!-- <g id="mastodon" transform="translate(-0.000000, 0.000000)" fill="#000000" fill-rule="nonzero"> -->
            <path d="M10.1787237,23.9882501 C8.72972368,23.9882501 7.22072368,23.7792501 5.67972368,23.3622501 C-0.034276315,21.8162501 -0.014276315,14.6972501 0.00172368496,8.97725012 L0.00372368496,8.03925012 C0.00372368496,2.78925012 3.35372368,1.19725012 3.49672368,1.13225012 C6.72272368,-0.377749876 15.2847237,-0.377749876 18.5107237,1.13425012 C18.6487237,1.19725012 21.9987237,2.78925012 21.9987237,8.03925012 C21.99955,8.18525012 22.0337237,11.7942501 21.5377237,14.3712501 C21.1667237,16.2962501 18.4667237,18.1542501 15.5187237,18.5142501 L15.2757237,18.5452501 C14.0277237,18.7112501 10.8247237,19.1332501 7.01772368,18.3132501 L7.01872368,18.3232501 C7.28572368,20.3692501 8.85472368,20.5832501 11.0427237,20.6602501 C12.9747237,20.7332501 14.7297237,20.1722501 14.7477237,20.1662501 C14.8960416,20.1196007 15.0576044,20.1443097 15.1851997,20.2331568 C15.3127951,20.3220039 15.3920202,20.46496 15.3997237,20.6202501 L15.4857237,22.5152501 C15.4943548,22.7057314 15.3938965,22.8845394 15.2267237,22.9762501 C15.1647237,23.0102501 13.6647237,23.8172501 11.0297237,23.9652501 C10.7463118,23.9804775 10.4625443,23.9882501 10.1787237,23.9882501 Z M11.0017237,0.993250124 C8.20472368,0.993250124 5.40772368,1.34225012 3.91672368,2.04025012 C3.79572368,2.09725012 1.00372368,3.46025012 1.00372368,8.03925012 L1.00272368,8.98025012 C0.986723685,14.6382501 0.967723685,21.0512501 5.94072368,22.3972501 C7.68072368,22.8672501 9.37572368,23.0612501 10.9717237,22.9652501 C12.7457237,22.8652501 13.9587237,22.4402501 14.4717237,22.2232501 L14.4297237,21.2862501 C13.6987237,21.4622501 12.4087237,21.7012501 11.0097237,21.6582501 C9.18272368,21.5932501 6.42472368,21.4952501 6.02872368,18.4512501 C5.9950214,18.1933033 5.97865135,17.9333871 5.97972368,17.6732501 C5.97945805,17.5191797 6.05023739,17.3735906 6.17156881,17.2786356 C6.29290023,17.1836805 6.45123263,17.1499648 6.60072368,17.1872501 C10.5117237,18.1632501 13.8787237,17.7202501 15.1467237,17.5522501 L15.3987237,17.5202501 C18.1237237,17.1882501 20.3047237,15.4942501 20.5567237,14.1802501 C21.0337237,11.7032501 21.0005458,8.07925012 20.9997237,8.04325012 C20.9997237,3.45825012 18.2077237,2.09525012 18.0887237,2.03925012 C16.5987237,1.34225012 13.8007237,0.993250124 11.0017237,0.993250124 L11.0017237,0.993250124 Z" id="Shape"></path>
            <path d="M11.0017237,0.993250124 C8.20472368,0.993250124 5.40772368,1.34225012 3.91672368,2.04025012 C3.79572368,2.09725012 1.00372368,3.46025012 1.00372368,8.03925012 L1.00272368,8.98025012 C0.986723685,14.6382501 0.967723685,21.0512501 5.94072368,22.3972501 C7.68072368,22.8672501 9.37572368,23.0612501 10.9717237,22.9652501 C12.7457237,22.8652501 13.9587237,22.4402501 14.4717237,22.2232501 L14.4297237,21.2862501 C13.6987237,21.4622501 12.4087237,21.7012501 11.0097237,21.6582501 C9.18272368,21.5932501 6.42472368,21.4952501 6.02872368,18.4512501 C5.9950214,18.1933033 5.97865135,17.9333871 5.97972368,17.6732501 C5.97945805,17.5191797 6.05023739,17.3735906 6.17156881,17.2786356 C6.29290023,17.1836805 6.45123263,17.1499648 6.60072368,17.1872501 C10.5117237,18.1632501 13.8787237,17.7202501 15.1467237,17.5522501 L15.3987237,17.5202501 C18.1237237,17.1882501 20.3047237,15.4942501 20.5567237,14.1802501 C21.0337237,11.7032501 21.0005458,8.07925012 20.9997237,8.04325012 C20.9997237,3.45825012 18.2077237,2.09525012 18.0887237,2.03925012 C16.5987237,1.34225012 13.8007237,0.993250124 11.0017237,0.993250124 L11.0017237,0.993250124 Z" id="Path" opacity="0.196071806"></path>
            <path d="M17.7287237,14.9672511 L15.3847237,14.9672511 C15.1085813,14.9672511 14.8847237,14.7433925 14.8847237,14.4672501 L14.8847237,8.60425012 C14.8847237,7.09425012 13.6397237,6.90025012 13.0757237,7.57325012 C12.8097237,7.88925012 12.6687237,8.36925012 12.6687237,8.95825012 L12.6687237,12.1672501 C12.6687237,12.4433925 12.4448661,12.6672501 12.1687237,12.6672501 L9.84172368,12.6672501 C9.56558131,12.6672501 9.34172368,12.4433925 9.34172368,12.1672501 L9.34172368,8.95825012 C9.34172368,8.36925012 9.20072368,7.89025012 8.93472368,7.57325012 C8.37172368,6.90125012 7.12672368,7.09525012 7.12672368,8.60425012 L7.12672368,14.4662501 C7.12672368,14.7423925 6.90286606,14.9662501 6.62672368,14.9662501 L4.27972368,14.9662501 C4.00358131,14.9662501 3.77972368,14.7423925 3.77972368,14.4662501 C3.77972368,13.3842501 3.77172368,12.4502501 3.76472368,11.6372501 C3.73172368,7.65325012 3.72272368,6.45125012 4.82372368,5.15925012 L4.82772368,5.15325012 C5.59772368,4.27625012 6.83772368,3.79125012 8.05672368,3.88325012 C9.21772368,3.97225012 10.2327237,4.57125012 10.8417237,5.52825012 L11.0027237,5.80425012 L11.1537237,5.54425012 C11.7662091,4.57760529 12.8029477,3.96098541 13.9447237,3.88425012 C15.1727237,3.79325012 16.4077237,4.27625012 17.1777237,5.15325012 C18.2867237,6.45925012 18.2767237,7.65525012 18.2417237,11.6172501 C18.2324779,12.567223 18.2274779,13.5172325 18.2267237,14.4672501 C18.2275238,14.5997552 18.1753774,14.7270937 18.0818684,14.8209782 C17.9883594,14.9148628 17.8612309,14.9675192 17.7287237,14.9672511 L17.7287237,14.9672511 Z" id="Shape"></path>
        <!-- </g> -->
    <!-- </g> -->
</svg>