<?xml version="1.0" encoding="UTF-8"?>
<svg width="16.0000032px" height="17.4464132px" viewBox="0 0 16.0000032 17.4464132" version="1.1" xmlns="http://www.w3.org/2000/svg" xmlns:xlink="http://www.w3.org/1999/xlink">
    <title>mastodon</title>
    <g id="Page-1" stroke="none" stroke-width="1" fill="none" fill-rule="evenodd">
        <g id="mastodon" transform="translate(0, -0)" fill="#000000" fill-rule="nonzero">
            <path d="M7.40288344,17.4464132 C6.34904029,17.4464132 5.25155976,17.2944096 4.13080594,16.9911297 C-0.0249288194,15.8667394 -0.0103830204,10.6891623 0.00125361874,6.52906378 L0.00270819864,5.84686581 C0.00270819864,2.02859358 2.43912952,0.870747979 2.54313199,0.823474133 C4.88936936,-0.274733687 11.1164259,-0.274733687 13.4626633,0.824928713 C13.5630293,0.870747979 15.9994506,2.02859358 15.9994506,5.84686581 C16.0000142,5.95305014 16.0249058,8.57783955 15.66417,10.4520658 C15.3943454,11.8520989 13.4306625,13.2034036 11.2866118,13.465228 L11.1098803,13.487774 C10.2022225,13.6085041 7.87271275,13.9154205 5.1039199,13.3190427 L5.10464719,13.3263156 C5.2988336,14.8143509 6.43995153,14.9699909 8.03126196,15.0259922 C9.43638614,15.0790844 10.71278,14.6710747 10.7258712,14.666711 C10.8337413,14.6327834 10.9512443,14.650754 11.0440431,14.7153716 C11.136842,14.7799892 11.1944616,14.8839597 11.2000643,14.9969006 L11.2626112,16.3751151 C11.2688885,16.5136502 11.1958262,16.6436955 11.0742431,16.7103958 C11.0291511,16.7351236 9.9382162,17.3220466 8.02180719,17.4296855 C7.81568456,17.4407603 7.60930331,17.4464132 7.40288344,17.4464132 Z M8.00144307,0.722380833 C5.96721307,0.722380833 3.93298308,0.976205022 2.84859376,1.48385341 C2.76059168,1.52530893 0.729998144,2.51660513 0.729998144,5.84686581 L0.729270854,6.53124565 C0.717634218,10.6462522 0.703815709,15.3103626 4.32062862,16.2892949 C5.58611313,16.6311212 6.8188696,16.7722154 7.97962437,16.7023956 C9.26983674,16.6296666 10.1520394,16.3205683 10.5251392,16.1627464 L10.494593,15.4812757 C9.96294406,15.6092788 9.02474003,15.7831011 8.00726139,15.7518276 C6.67850264,15.7045538 4.67263696,15.6332793 4.38463014,13.4194087 C4.36011881,13.2318066 4.34821303,13.0427722 4.34899293,12.8535772 C4.34879974,12.7415233 4.40027684,12.6356378 4.48851996,12.566578 C4.57676309,12.4975181 4.69191665,12.472997 4.80063999,12.5001142 C7.64507099,13.2099492 10.0938563,12.8877598 11.0160599,12.7655751 L11.199337,12.7423018 C13.1812021,12.5008415 14.7674215,11.2688124 14.9506985,10.3131534 C15.2976158,8.51165617 15.2734474,5.87595741 15.272888,5.84977497 C15.272888,2.51515055 13.2422944,1.52385435 13.1557469,1.48312612 C12.0720849,0.976205022 10.0371276,0.722380833 8.00144307,0.722380833 L8.00144307,0.722380833 Z" id="Shape"></path>
            <path d="M8.00144307,0.722380833 C5.96721307,0.722380833 3.93298308,0.976205022 2.84859376,1.48385341 C2.76059168,1.52530893 0.729998144,2.51660513 0.729998144,5.84686581 L0.729270854,6.53124565 C0.717634218,10.6462522 0.703815709,15.3103626 4.32062862,16.2892949 C5.58611313,16.6311212 6.8188696,16.7722154 7.97962437,16.7023956 C9.26983674,16.6296666 10.1520394,16.3205683 10.5251392,16.1627464 L10.494593,15.4812757 C9.96294406,15.6092788 9.02474003,15.7831011 8.00726139,15.7518276 C6.67850264,15.7045538 4.67263696,15.6332793 4.38463014,13.4194087 C4.36011881,13.2318066 4.34821303,13.0427722 4.34899293,12.8535772 C4.34879974,12.7415233 4.40027684,12.6356378 4.48851996,12.566578 C4.57676309,12.4975181 4.69191665,12.472997 4.80063999,12.5001142 C7.64507099,13.2099492 10.0938563,12.8877598 11.0160599,12.7655751 L11.199337,12.7423018 C13.1812021,12.5008415 14.7674215,11.2688124 14.9506985,10.3131534 C15.2976158,8.51165617 15.2734474,5.87595741 15.272888,5.84977497 C15.272888,2.51515055 13.2422944,1.52385435 13.1557469,1.48312612 C12.0720849,0.976205022 10.0371276,0.722380833 8.00144307,0.722380833 L8.00144307,0.722380833 Z" id="Path" opacity="0.196071806"></path>
            <path d="M12.8939226,10.885532 L11.1891549,10.885532 C10.9883193,10.885532 10.8255099,10.7227212 10.8255099,10.5218856 L10.8255099,6.25778463 C10.8255099,5.15957681 9.92003395,5.01848256 9.50984242,5.50794869 C9.31638329,5.73777232 9.21383541,6.08687149 9.21383541,6.51524527 L9.21383541,8.8491187 C9.21383541,9.0499543 9.05102603,9.21276368 8.85019044,9.21276368 L7.15778671,9.21276368 C6.95695114,9.21276368 6.79414174,9.0499543 6.79414174,8.8491187 L6.79414174,6.51524527 C6.79414174,6.08687149 6.69159385,5.73849961 6.49813473,5.50794869 C6.08867049,5.01920985 5.1831945,5.1603041 5.1831945,6.25778463 L5.1831945,10.5211583 C5.1831945,10.7219939 5.0203851,10.8848033 4.81954953,10.8848033 L3.11260002,10.8848033 C2.91176445,10.8848033 2.74895504,10.7219939 2.74895504,10.5211583 C2.74895504,9.73423057 2.74313672,9.05494176 2.73804569,8.46365503 C2.71404512,5.56613189 2.70749951,4.69192937 3.50824575,3.75227076 L3.51115491,3.74790702 C4.07116817,3.11007373 4.97300771,2.75733811 5.85957415,2.82424878 C6.70395778,2.88897759 7.4421571,3.32462427 7.88507668,4.02064075 L8.00217036,4.22137277 L8.11199114,4.03227739 C8.55744561,3.32924632 9.31145518,2.88078488 10.1418574,2.82497607 C11.0349694,2.75879269 11.9331725,3.11007373 12.4931858,3.74790702 C13.2997503,4.69774769 13.2924774,5.56758647 13.2670223,8.44910923 C13.2602979,9.14001497 13.2566615,9.83094733 13.2561129,10.5218856 C13.2566949,10.6182552 13.2187693,10.7108672 13.1507611,10.7791485 C13.082753,10.8474298 12.9902937,10.8857263 12.8939226,10.885532 L12.8939226,10.885532 Z" id="Shape"></path>
        </g>
    </g>
</svg>